<svg width="64" height="64" viewBox="0 0 64 64" xmlns="http://www.w3.org/2000/svg">
  <style>
    .grid {
      stroke: rgba(0, 255, 255, 0.5);
      stroke-width: 0.5;
    }
    .glow {
      filter: drop-shadow(0 0 3px #0ff);
    }
    @keyframes pulse {
      0%, 100% { opacity: 1; }
      50% { opacity: 0.7; }
    }
    .pulse {
      animation: pulse 2s infinite;
    }
    @keyframes rotate {
      from { transform: rotate(0deg); }
      to { transform: rotate(360deg); }
    }
    .rotate {
      transform-origin: center;
      animation: rotate 10s linear infinite;
    }
  </style>
  
  <!-- Background -->
  <rect x="0" y="0" width="64" height="64" fill="#121212" />
  
  <!-- Grid background -->
  <g class="grid">
    <!-- Horizontal lines -->
    <line x1="0" y1="8" x2="64" y2="8" />
    <line x1="0" y1="16" x2="64" y2="16" />
    <line x1="0" y1="24" x2="64" y2="24" />
    <line x1="0" y1="32" x2="64" y2="32" />
    <line x1="0" y1="40" x2="64" y2="40" />
    <line x1="0" y1="48" x2="64" y2="48" />
    <line x1="0" y1="56" x2="64" y2="56" />
    
    <!-- Vertical lines -->
    <line x1="8" y1="0" x2="8" y2="64" />
    <line x1="16" y1="0" x2="16" y2="64" />
    <line x1="24" y1="0" x2="24" y2="64" />
    <line x1="32" y1="0" x2="32" y2="64" />
    <line x1="40" y1="0" x2="40" y2="64" />
    <line x1="48" y1="0" x2="48" y2="64" />
    <line x1="56" y1="0" x2="56" y2="64" />
  </g>
  
  <!-- Central artifact symbol -->
  <g class="glow">
    <!-- Outer rotating ring -->
    <circle class="rotate" cx="32" cy="32" r="24" fill="none" stroke="#ff00ff" stroke-width="1.5" />
    
    <!-- Inner hexagon -->
    <polygon 
      class="pulse" 
      points="32,16 40,22 40,38 32,44 24,38 24,22" 
      fill="none" 
      stroke="#0cff0c" 
      stroke-width="2" 
    />
    
    <!-- Center dot -->
    <circle cx="32" cy="32" r="4" fill="#ff00ff" />
  </g>
  
  <!-- E letter for Extradaganca -->
  <text 
    x="32" 
    y="34" 
    text-anchor="middle" 
    font-family="monospace" 
    font-size="14" 
    font-weight="bold" 
    fill="#ffffff"
    class="pulse"
  >E</text>
</svg> 